<?xml version="1.0" encoding="utf-8"?>
<!-- Generator: Adobe Illustrator 26.1.0, SVG Export Plug-In . SVG Version: 6.00 Build 0)  -->
<svg version="1.1" id="Layer_1" xmlns="http://www.w3.org/2000/svg" xmlns:xlink="http://www.w3.org/1999/xlink" x="0px" y="0px"
	 viewBox="0 0 1289.4 498.7" style="enable-background:new 0 0 1289.4 498.7;" xml:space="preserve">
<style type="text/css">
	.st0{fill:#0052FF;stroke:#000000;stroke-width:4;stroke-miterlimit:10;}
</style>
<g>
	<path class="st0" d="M93.6,254.5l14.2,234.2H2.1l7.1-255.6L2.1,9.3h105.8L93.6,254.5z"/>
	<path class="st0" d="M139,233.1L131.9,9.3h105.8l-11,191.4l14.3,0.6l72.7-192h105.8l-98.6,245.2l98.3,234.2H313.5l-66.8-199.2
		l-9.7-1.9l-11,1.9l11.6,199.2H131.8L139,233.1z"/>
	<path class="st0" d="M519.8,254.5l14.3,234.2H428.3l7.1-255.6L428.3,9.3h105.8L519.8,254.5z"/>
	<path class="st0" d="M867.5,341.5l-15.6-2.6l3.9,135.6h-24.7v22.1l-155.7-7.1l-122.6,7.1V390.8l13.6,0.6l3.9-158.3l-7-223.8h18.2
		V2.2l108.3,7.1l169.3-7.1V108l-6.5-0.6l-5.2,86.9l-91.5-9.7l-2.6-83.7l-85-6.5l-3.9,0.6l-9.1,159.6l8.4,144.7l79.8,5.8l10.4-1.9
		l3.9-68.1l-62.3,9.7V239l108.3,7.1l63.6-11L867.5,341.5L867.5,341.5z"/>
	<path class="st0" d="M880.5,488.7l10.4-70.7l-5.8,0.6V312.9l22.1,1.3l12.3-81.1L931.2,104l-18.2,3.9V2.2l80.4,7.1l127.2-7.1V108
		l-7.1-0.6l9.7,147.3l11.7,59.7l27.9-1.3v105.6l-9.1-0.6l13,70.7h-106.4l-7.1-78.5l-61.6-3.9l-5.3,82.3H880.5z M997.3,320.1
		l46.7-1.9l-8.4-85l-13.6-91.5l-20.8,112.9L997.3,320.1z"/>
	<path class="st0" d="M1273,254.5l14.3,234.2h-105.8l7.1-255.6l-7.1-223.8h105.8L1273,254.5z"/>
</g>
</svg>
