<?xml version="1.0" encoding="utf-8"?>
<!-- Generator: Adobe Illustrator 26.1.0, SVG Export Plug-In . SVG Version: 6.00 Build 0)  -->
<svg version="1.1" id="Layer_1" xmlns="http://www.w3.org/2000/svg" xmlns:xlink="http://www.w3.org/1999/xlink" x="0px" y="0px"
	 viewBox="0 0 690.1 231.8" style="enable-background:new 0 0 690.1 231.8;" xml:space="preserve">
<style type="text/css">
	.st0{fill:#0052FF;stroke:#000000;stroke-width:3;stroke-miterlimit:10;}
</style>
<g>
	<path class="st0" d="M4.8,108.4L1.5,4.9h48.9l-5.1,88.5l6.6,0.3L85.5,4.9h48.9L88.8,118.3l45.6,108.3H85.5l-30.9-92.1l-4.5-0.9
		l-5.1,0.9l5.4,92.1H1.5L4.8,108.4z"/>
	<path class="st0" d="M135.9,226.6l4.8-32.7l-2.7,0.3v-48.9l10.2,0.6l5.7-37.5l5.4-59.7l-8.4,1.8V1.6l37.2,3.3l58.8-3.3v48.9
		l-3.3-0.3l4.5,68.1l5.4,27.6l12.9-0.6v48.9l-4.2-0.3l6,32.7H219l-3.3-36.3l-28.5-1.8l-2.4,38.1H135.9z M189.9,148.6l21.6-0.9
		l-3.9-39.3l-6.3-42.3l-9.6,52.2L189.9,148.6z"/>
	<path class="st0" d="M309.9,108.4l-1.8-63.6l-51,5.7V1.6l66.6,3.3l81.6-3.3v48.9l-51.9-3.3l-4.2,71.1l6.6,108.3h-49.2L309.9,108.4z
		"/>
	<path class="st0" d="M456.6,44.5l-1.5,50.4l78.9,22.2l-4.5,74.1l8.4,39l-69.9-3.3l-50.4,3.3V220H402l5.1-69.9l41.7,1.5l1.2,34.8
		l8.1,1.5l35.7-2.4l0.6-46.5L414,124.9l3.6-72.6l-2.1-50.7l53.4,3.3l69.9-3.3v19.8h6l-4.8,69l-42-4.5l-1.2-38.7l-37.8-3L456.6,44.5z
		"/>
	<path class="st0" d="M550.8,230.2v-48.9l6.3,0.3l1.8-73.2L555.6,4.9h49.2l-6.6,113.4l3.9,66.9l36.9,2.7l1.5-0.6l2.4-78.9L639.6,4.9
		h48.9l-6.6,113.4l6.6,108.3h-9v3.6l-72-3.3L550.8,230.2z"/>
</g>
</svg>
