<svg width="360" height="385" viewBox="0 0 360 385" fill="none" xmlns="http://www.w3.org/2000/svg">
<mask id="mask0_2_40" style="mask-type:luminance" maskUnits="userSpaceOnUse" x="35" y="50" width="275" height="276">
<path d="M292.08 256.724C275.701 285.093 249.737 306.687 218.859 317.622C187.98 328.557 154.213 328.115 123.631 316.375C93.0487 304.636 67.659 282.37 52.0283 253.582C36.3977 224.794 31.552 191.373 38.3627 159.331C45.1734 127.289 63.1936 98.7288 89.1821 78.7872C115.171 58.8456 147.422 48.8313 180.135 50.5458C212.847 52.2602 243.875 65.5907 267.637 88.1397C291.398 110.689 306.334 140.976 309.758 173.554L172.934 187.935L292.08 256.724Z" fill="white"/>
</mask>
<g mask="url(#mask0_2_40)">
<path d="M292.08 256.724C275.701 285.093 249.737 306.687 218.859 317.622C187.98 328.557 154.213 328.115 123.631 316.375C93.0487 304.636 67.659 282.37 52.0283 253.582C36.3977 224.794 31.552 191.373 38.3627 159.331C45.1734 127.289 63.1936 98.7288 89.1821 78.7872C115.171 58.8456 147.422 48.8313 180.135 50.5458C212.847 52.2602 243.875 65.5907 267.637 88.1397C291.398 110.689 306.334 140.976 309.758 173.554L172.934 187.935L292.08 256.724Z" fill="#0052FF" stroke="#FFFAF6" stroke-width="3.40399"/>
</g>
<g filter="url(#filter0_d_2_40)">
<path d="M324.974 172.094C328.885 213.336 320.111 248.436 297.296 281.429L172.089 188.163L324.974 172.094Z" fill="#2E282D"/>
<path d="M174.609 188.855L324.116 173.141C327.751 213.419 319.163 247.768 297.072 280.077L174.609 188.855Z" stroke="#FFFAF6" stroke-width="1.90178"/>
</g>
<path d="M253.051 234.631H249.483L249.833 232.244L249.636 232.266V228.697L250.38 228.741L250.796 226.004L251.19 221.647L250.577 221.778V218.21L253.292 218.45L257.584 218.21V221.778L257.343 221.757L257.671 226.727L258.065 228.741L259.007 228.697V232.266L258.7 232.244L259.138 234.631H255.547L255.307 231.982L253.227 231.85L253.051 234.631ZM253.555 226.727L253.424 228.938L255 228.872L254.715 226.004L254.256 222.917L253.555 226.727ZM259.603 223.224H263.172L262.712 229.814L263.172 234.631H259.603L259.844 229.113L259.603 223.224ZM259.296 219.304L263.566 218.21L263.194 222.392L259.734 222.676L259.296 219.304ZM267.71 223.224L271.389 222.983L270.929 226.552L268.433 226.07L267.163 226.289L267.141 229.113L267.513 234.631H263.922L264.295 229.814L263.813 223.224L267.207 222.983V224.121L267.71 223.224ZM279.566 229.814L280.967 234.631H278.011L277.201 233.164L276.61 234.653L271.552 234.894V231.325L272.056 231.368L272.143 229.113L271.903 223.224H272.516V222.983L276.172 223.224L276.588 223.902L276.457 218.45L280.026 218.21L279.566 229.814ZM276.61 231.215L276.698 229.113L276.632 226.289L275.45 226.07L275.274 226.092L275.012 229.814L275.187 231.675L275.909 231.741L276.61 231.215ZM285.158 223.224L288.836 222.983L288.377 226.552L285.88 226.07L284.611 226.289L284.589 229.113L284.961 234.631H281.37L281.742 229.814L281.261 223.224L284.654 222.983V224.121L285.158 223.224ZM297.758 226.552L297.254 226.508L297.013 229.814L297.473 234.631H296.816V234.894L293.138 234.653L289 234.894V231.325L289.503 231.368L289.591 229.113L289.35 223.224H289.963V222.983L293.62 223.224L297.758 222.983V226.552ZM294.036 231.763L294.145 229.113L294.036 226.201L292.897 226.07L292.722 226.092L292.459 229.814L292.634 231.675L293.861 231.806L294.036 231.763ZM307.41 226.552L306.906 226.508L306.819 228.763L307.038 234.653H306.446V234.894L302.79 234.653L302.374 233.974L302.505 239.426L298.915 239.667L299.396 228.062L297.995 223.245H300.951L301.761 224.712L302.352 223.224L307.41 222.983V226.552ZM303.688 231.763L303.95 228.062L303.753 226.201L303.053 226.136L302.352 226.639L302.264 228.763L302.33 231.587L303.491 231.806L303.688 231.763Z" fill="white"/>
<mask id="mask1_2_40" style="mask-type:luminance" maskUnits="userSpaceOnUse" x="248" y="216" width="61" height="25">
<path d="M308.373 216.631H248.373V240.631H308.373V216.631Z" fill="white"/>
<path d="M253.051 234.631H249.483L249.833 232.244L249.636 232.266V228.697L250.38 228.741L250.796 226.004L251.19 221.647L250.577 221.778V218.21L253.292 218.45L257.584 218.21V221.778L257.343 221.757L257.671 226.727L258.065 228.741L259.007 228.697V232.266L258.7 232.244L259.138 234.631H255.547L255.307 231.982L253.227 231.85L253.051 234.631ZM253.555 226.727L253.424 228.938L255 228.872L254.715 226.004L254.256 222.917L253.555 226.727ZM259.603 223.224H263.172L262.712 229.814L263.172 234.631H259.603L259.844 229.113L259.603 223.224ZM259.296 219.304L263.566 218.21L263.194 222.392L259.734 222.676L259.296 219.304ZM267.71 223.224L271.389 222.983L270.929 226.552L268.433 226.07L267.163 226.289L267.141 229.113L267.513 234.631H263.922L264.295 229.814L263.813 223.224L267.207 222.983V224.121L267.71 223.224ZM279.566 229.814L280.967 234.631H278.011L277.201 233.164L276.61 234.653L271.552 234.894V231.325L272.056 231.368L272.143 229.113L271.903 223.224H272.516V222.983L276.172 223.224L276.588 223.902L276.457 218.45L280.026 218.21L279.566 229.814ZM276.61 231.215L276.698 229.113L276.632 226.289L275.45 226.07L275.274 226.092L275.012 229.814L275.187 231.675L275.909 231.741L276.61 231.215ZM285.158 223.224L288.836 222.983L288.377 226.552L285.88 226.07L284.611 226.289L284.589 229.113L284.961 234.631H281.37L281.742 229.814L281.261 223.224L284.654 222.983V224.121L285.158 223.224ZM297.758 226.552L297.254 226.508L297.013 229.814L297.473 234.631H296.816V234.894L293.138 234.653L289 234.894V231.325L289.503 231.368L289.591 229.113L289.35 223.224H289.963V222.983L293.62 223.224L297.758 222.983V226.552ZM294.036 231.763L294.145 229.113L294.036 226.201L292.897 226.07L292.722 226.092L292.459 229.814L292.634 231.675L293.861 231.806L294.036 231.763ZM307.41 226.552L306.906 226.508L306.819 228.763L307.038 234.653H306.446V234.894L302.79 234.653L302.374 233.974L302.505 239.426L298.915 239.667L299.396 228.062L297.995 223.245H300.951L301.761 224.712L302.352 223.224L307.41 222.983V226.552ZM303.688 231.763L303.95 228.062L303.753 226.201L303.053 226.136L302.352 226.639L302.264 228.763L302.33 231.587L303.491 231.806L303.688 231.763Z" fill="black"/>
</mask>
<g mask="url(#mask1_2_40)">
<path d="M253.051 234.631V235.216H253.601L253.636 234.668L253.051 234.631ZM249.483 234.631L248.903 234.546L248.805 235.216H249.483V234.631ZM249.833 232.244L250.412 232.329L250.522 231.579L249.768 231.662L249.833 232.244ZM249.636 232.266H249.05V232.92L249.7 232.848L249.636 232.266ZM249.636 228.697L249.67 228.113L249.05 228.076V228.697H249.636ZM250.38 228.741L250.346 229.326L250.879 229.357L250.959 228.829L250.38 228.741ZM250.796 226.004L251.375 226.092L251.378 226.075L251.379 226.057L250.796 226.004ZM251.19 221.647L251.773 221.7L251.845 220.908L251.068 221.075L251.19 221.647ZM250.577 221.778H249.992V222.503L250.7 222.351L250.577 221.778ZM250.577 218.21L250.629 217.626L249.992 217.57V218.21H250.577ZM253.292 218.45L253.241 219.034L253.283 219.037L253.325 219.035L253.292 218.45ZM257.584 218.21H258.169V217.59L257.551 217.625L257.584 218.21ZM257.584 221.778L257.531 222.362L258.169 222.42V221.778H257.584ZM257.343 221.757L257.396 221.173L256.713 221.111L256.759 221.795L257.343 221.757ZM257.671 226.727L257.087 226.765L257.089 226.803L257.097 226.839L257.671 226.727ZM258.065 228.741L257.491 228.854L257.588 229.349L258.093 229.326L258.065 228.741ZM259.007 228.697H259.592V228.084L258.98 228.112L259.007 228.697ZM259.007 232.266L258.965 232.85L259.592 232.895V232.266H259.007ZM258.7 232.244L258.742 231.66L257.988 231.606L258.124 232.35L258.7 232.244ZM259.138 234.631V235.216H259.841L259.714 234.525L259.138 234.631ZM255.547 234.631L254.964 234.684L255.013 235.216H255.547V234.631ZM255.307 231.982L255.89 231.929L255.844 231.429L255.344 231.397L255.307 231.982ZM253.227 231.85L253.263 231.266L252.679 231.229L252.642 231.813L253.227 231.85ZM253.555 226.727L252.979 226.621L252.973 226.656L252.97 226.692L253.555 226.727ZM253.424 228.938L252.839 228.903L252.801 229.55L253.448 229.523L253.424 228.938ZM255 228.872L255.024 229.457L255.644 229.432L255.583 228.815L255 228.872ZM254.715 226.004L255.298 225.946L255.297 225.932L255.295 225.918L254.715 226.004ZM254.256 222.917L254.835 222.831L253.68 222.811L254.256 222.917ZM253.051 234.045H249.483V235.216H253.051V234.045ZM250.062 234.716L250.412 232.329L249.254 232.159L248.903 234.546L250.062 234.716ZM249.768 231.662L249.571 231.684L249.7 232.848L249.898 232.826L249.768 231.662ZM250.221 232.266V228.697H249.05V232.266H250.221ZM249.601 229.282L250.346 229.326L250.415 228.157L249.67 228.113L249.601 229.282ZM250.959 228.829L251.375 226.092L250.217 225.916L249.801 228.653L250.959 228.829ZM251.379 226.057L251.773 221.7L250.607 221.594L250.213 225.951L251.379 226.057ZM251.068 221.075L250.455 221.206L250.7 222.351L251.313 222.22L251.068 221.075ZM251.163 221.778V218.21H249.992V221.778H251.163ZM250.526 218.793L253.241 219.034L253.344 217.867L250.629 217.626L250.526 218.793ZM253.325 219.035L257.617 218.794L257.551 217.625L253.259 217.866L253.325 219.035ZM256.998 218.21V221.778H258.169V218.21H256.998ZM257.637 221.195L257.396 221.173L257.29 222.34L257.531 222.362L257.637 221.195ZM256.759 221.795L257.087 226.765L258.256 226.688L257.927 221.718L256.759 221.795ZM257.097 226.839L257.491 228.854L258.64 228.629L258.246 226.614L257.097 226.839ZM258.093 229.326L259.034 229.282L258.98 228.112L258.038 228.156L258.093 229.326ZM258.421 228.697V232.266H259.592V228.697H258.421ZM259.049 231.682L258.742 231.66L258.659 232.828L258.965 232.85L259.049 231.682ZM258.124 232.35L258.562 234.737L259.714 234.525L259.276 232.139L258.124 232.35ZM259.138 234.045H255.547V235.216H259.138V234.045ZM256.131 234.578L255.89 231.929L254.723 232.035L254.964 234.684L256.131 234.578ZM255.344 231.397L253.263 231.266L253.19 232.435L255.27 232.566L255.344 231.397ZM252.642 231.813L252.467 234.594L253.636 234.668L253.811 231.887L252.642 231.813ZM252.97 226.692L252.839 228.903L254.008 228.973L254.14 226.761L252.97 226.692ZM253.448 229.523L255.024 229.457L254.976 228.287L253.399 228.353L253.448 229.523ZM255.583 228.815L255.298 225.946L254.133 226.062L254.417 228.93L255.583 228.815ZM255.295 225.918L254.835 222.831L253.676 223.003L254.136 226.09L255.295 225.918ZM253.68 222.811L252.979 226.621L254.131 226.833L254.832 223.023L253.68 222.811ZM259.603 223.224V222.638H258.993L259.018 223.247L259.603 223.224ZM263.172 223.224L263.756 223.264L263.8 222.638H263.172V223.224ZM262.712 229.814L262.128 229.773L262.124 229.821L262.129 229.87L262.712 229.814ZM263.172 234.631V235.216H263.816L263.755 234.575L263.172 234.631ZM259.603 234.631L259.018 234.605L258.991 235.216H259.603V234.631ZM259.844 229.113L260.429 229.139L260.43 229.114L260.429 229.089L259.844 229.113ZM259.296 219.304L259.151 218.737L258.649 218.866L258.716 219.38L259.296 219.304ZM263.566 218.21L264.149 218.261L264.222 217.437L263.42 217.642L263.566 218.21ZM263.194 222.392L263.242 222.975L263.733 222.935L263.777 222.443L263.194 222.392ZM259.734 222.676L259.154 222.752L259.225 223.306L259.782 223.26L259.734 222.676ZM259.603 223.809H263.172V222.638H259.603V223.809ZM262.588 223.183L262.128 229.773L263.296 229.855L263.756 223.264L262.588 223.183ZM262.129 229.87L262.589 234.686L263.755 234.575L263.295 229.758L262.129 229.87ZM263.172 234.045H259.603V235.216H263.172V234.045ZM260.188 234.656L260.429 229.139L259.259 229.088L259.018 234.605L260.188 234.656ZM260.429 229.089L260.188 223.2L259.018 223.247L259.259 229.137L260.429 229.089ZM259.442 219.872L263.711 218.777L263.42 217.642L259.151 218.737L259.442 219.872ZM262.983 218.158L262.61 222.34L263.777 222.443L264.149 218.261L262.983 218.158ZM263.146 221.808L259.686 222.093L259.782 223.26L263.242 222.975L263.146 221.808ZM260.315 222.601L259.877 219.229L258.716 219.38L259.154 222.752L260.315 222.601ZM267.71 223.224L267.672 222.639L267.355 222.66L267.2 222.937L267.71 223.224ZM271.389 222.983L271.969 223.058L272.06 222.352L271.35 222.398L271.389 222.983ZM270.929 226.552L270.818 227.127L271.43 227.245L271.51 226.626L270.929 226.552ZM268.433 226.07L268.544 225.495L268.439 225.475L268.333 225.493L268.433 226.07ZM267.163 226.289L267.063 225.712L266.581 225.795L266.577 226.284L267.163 226.289ZM267.141 229.113L266.556 229.109L266.555 229.131L266.557 229.153L267.141 229.113ZM267.513 234.631V235.216H268.14L268.097 234.591L267.513 234.631ZM263.922 234.631L263.339 234.586L263.29 235.216H263.922V234.631ZM264.295 229.814L264.878 229.859L264.882 229.815L264.879 229.771L264.295 229.814ZM263.813 223.224L263.772 222.639L263.186 222.681L263.229 223.266L263.813 223.224ZM267.207 222.983H267.792V222.354L267.165 222.399L267.207 222.983ZM267.207 224.121H266.621V226.362L267.717 224.408L267.207 224.121ZM267.749 223.808L271.427 223.567L271.35 222.398L267.672 222.639L267.749 223.808ZM270.808 222.908L270.348 226.477L271.51 226.626L271.969 223.058L270.808 222.908ZM271.04 225.977L268.544 225.495L268.322 226.645L270.818 227.127L271.04 225.977ZM268.333 225.493L267.063 225.712L267.262 226.866L268.532 226.647L268.333 225.493ZM266.577 226.284L266.556 229.109L267.727 229.118L267.748 226.293L266.577 226.284ZM266.557 229.153L266.929 234.67L268.097 234.591L267.725 229.074L266.557 229.153ZM267.513 234.045H263.922V235.216H267.513V234.045ZM264.506 234.676L264.878 229.859L263.711 229.769L263.339 234.586L264.506 234.676ZM264.879 229.771L264.397 223.181L263.229 223.266L263.711 229.857L264.879 229.771ZM263.854 223.808L267.248 223.567L267.165 222.399L263.772 222.639L263.854 223.808ZM266.621 222.983V224.121H267.792V222.983H266.621ZM267.717 224.408L268.221 223.51L267.2 222.937L266.696 223.835L267.717 224.408ZM279.566 229.814L278.981 229.791L278.977 229.886L279.004 229.978L279.566 229.814ZM280.967 234.631V235.216H281.747L281.529 234.467L280.967 234.631ZM278.011 234.631L277.499 234.914L277.666 235.216H278.011V234.631ZM277.201 233.164L277.714 232.881L277.114 231.796L276.657 232.948L277.201 233.164ZM276.61 234.653L276.638 235.238L277.015 235.22L277.154 234.869L276.61 234.653ZM271.552 234.894H270.967V235.508L271.58 235.478L271.552 234.894ZM271.552 231.325L271.603 230.741L270.967 230.686V231.325H271.552ZM272.056 231.368L272.005 231.952L272.617 232.005L272.641 231.391L272.056 231.368ZM272.143 229.113L272.728 229.136L272.729 229.113L272.728 229.089L272.143 229.113ZM271.903 223.224V222.638H271.293L271.317 223.247L271.903 223.224ZM272.516 223.224V223.809H273.101V223.224H272.516ZM272.516 222.983L272.554 222.398L271.93 222.357V222.983H272.516ZM276.172 223.224L276.671 222.918L276.513 222.659L276.211 222.639L276.172 223.224ZM276.588 223.902L276.089 224.208L277.226 226.063L277.173 223.888L276.588 223.902ZM276.457 218.45L276.417 217.866L275.858 217.904L275.871 218.465L276.457 218.45ZM280.026 218.21L280.611 218.233L280.636 217.581L279.986 217.625L280.026 218.21ZM276.61 231.215L276.961 231.684L277.183 231.517L277.195 231.24L276.61 231.215ZM276.698 229.113L277.283 229.138V229.119V229.1L276.698 229.113ZM276.632 226.289L277.217 226.275L277.206 225.8L276.738 225.713L276.632 226.289ZM275.45 226.07L275.556 225.494L275.467 225.478L275.377 225.489L275.45 226.07ZM275.274 226.092L275.202 225.511L274.724 225.57L274.69 226.051L275.274 226.092ZM275.012 229.814L274.428 229.773L274.424 229.821L274.429 229.869L275.012 229.814ZM275.187 231.675L274.604 231.73L274.649 232.214L275.134 232.258L275.187 231.675ZM275.909 231.741L275.856 232.324L276.081 232.344L276.261 232.209L275.909 231.741ZM279.004 229.978L280.405 234.794L281.529 234.467L280.128 229.65L279.004 229.978ZM280.967 234.045H278.011V235.216H280.967V234.045ZM278.524 234.348L277.714 232.881L276.689 233.447L277.499 234.914L278.524 234.348ZM276.657 232.948L276.066 234.437L277.154 234.869L277.745 233.38L276.657 232.948ZM276.582 234.068L271.524 234.309L271.58 235.478L276.638 235.238L276.582 234.068ZM272.138 234.894V231.325H270.967V234.894H272.138ZM271.501 231.908L272.005 231.952L272.107 230.785L271.603 230.741L271.501 231.908ZM272.641 231.391L272.728 229.136L271.558 229.091L271.471 231.346L272.641 231.391ZM272.728 229.089L272.488 223.2L271.317 223.247L271.558 229.137L272.728 229.089ZM271.903 223.809H272.516V222.638H271.903V223.809ZM273.101 223.224V222.983H271.93V223.224H273.101ZM272.477 223.567L276.134 223.808L276.211 222.639L272.554 222.398L272.477 223.567ZM275.673 223.53L276.089 224.208L277.087 223.596L276.671 222.918L275.673 223.53ZM277.173 223.888L277.042 218.436L275.871 218.465L276.003 223.916L277.173 223.888ZM276.496 219.035L280.065 218.794L279.986 217.625L276.417 217.866L276.496 219.035ZM279.441 218.186L278.981 229.791L280.151 229.837L280.611 218.233L279.441 218.186ZM277.195 231.24L277.283 229.138L276.113 229.089L276.025 231.191L277.195 231.24ZM277.283 229.1L277.217 226.275L276.046 226.302L276.112 229.127L277.283 229.1ZM276.738 225.713L275.556 225.494L275.343 226.646L276.525 226.865L276.738 225.713ZM275.377 225.489L275.202 225.511L275.347 226.673L275.522 226.651L275.377 225.489ZM274.69 226.051L274.428 229.773L275.596 229.855L275.858 226.133L274.69 226.051ZM274.429 229.869L274.604 231.73L275.77 231.62L275.595 229.759L274.429 229.869ZM275.134 232.258L275.856 232.324L275.962 231.158L275.24 231.092L275.134 232.258ZM276.261 232.209L276.961 231.684L276.259 230.747L275.558 231.272L276.261 232.209ZM285.158 223.224L285.12 222.639L284.803 222.66L284.647 222.937L285.158 223.224ZM288.836 222.983L289.417 223.058L289.508 222.352L288.798 222.398L288.836 222.983ZM288.377 226.552L288.266 227.127L288.878 227.245L288.957 226.626L288.377 226.552ZM285.88 226.07L285.991 225.495L285.886 225.475L285.781 225.493L285.88 226.07ZM284.611 226.289L284.511 225.712L284.029 225.795L284.025 226.284L284.611 226.289ZM284.589 229.113L284.003 229.109V229.131L284.004 229.153L284.589 229.113ZM284.961 234.631V235.216H285.587L285.545 234.591L284.961 234.631ZM281.37 234.631L280.786 234.586L280.738 235.216H281.37V234.631ZM281.742 229.814L282.326 229.859L282.33 229.815L282.326 229.771L281.742 229.814ZM281.261 223.224L281.219 222.639L280.634 222.681L280.677 223.266L281.261 223.224ZM284.654 222.983H285.24V222.354L284.613 222.399L284.654 222.983ZM284.654 224.121H284.069V226.362L285.165 224.408L284.654 224.121ZM285.196 223.808L288.875 223.567L288.798 222.398L285.12 222.639L285.196 223.808ZM288.256 222.908L287.796 226.477L288.957 226.626L289.417 223.058L288.256 222.908ZM288.487 225.977L285.991 225.495L285.77 226.645L288.266 227.127L288.487 225.977ZM285.781 225.493L284.511 225.712L284.71 226.866L285.98 226.647L285.781 225.493ZM284.025 226.284L284.003 229.109L285.174 229.118L285.196 226.293L284.025 226.284ZM284.004 229.153L284.377 234.67L285.545 234.591L285.173 229.074L284.004 229.153ZM284.961 234.045H281.37V235.216H284.961V234.045ZM281.954 234.676L282.326 229.859L281.159 229.769L280.786 234.586L281.954 234.676ZM282.326 229.771L281.845 223.181L280.677 223.266L281.158 229.857L282.326 229.771ZM281.302 223.808L284.696 223.567L284.613 222.399L281.219 222.639L281.302 223.808ZM284.069 222.983V224.121H285.24V222.983H284.069ZM285.165 224.408L285.669 223.51L284.647 222.937L284.144 223.835L285.165 224.408ZM297.758 226.552L297.707 227.135L298.343 227.19V226.552H297.758ZM297.254 226.508L297.305 225.924L296.713 225.873L296.67 226.465L297.254 226.508ZM297.013 229.814L296.429 229.771L296.426 229.821L296.431 229.87L297.013 229.814ZM297.473 234.631V235.216H298.117L298.056 234.575L297.473 234.631ZM296.816 234.631V234.045H296.231V234.631H296.816ZM296.816 234.894L296.778 235.478L297.402 235.519V234.894H296.816ZM293.138 234.653L293.176 234.068L293.14 234.066L293.104 234.068L293.138 234.653ZM289 234.894H288.414V235.514L289.034 235.478L289 234.894ZM289 231.325L289.051 230.741L288.414 230.686V231.325H289ZM289.503 231.368L289.453 231.952L290.065 232.005L290.089 231.391L289.503 231.368ZM289.591 229.113L290.176 229.136L290.177 229.113L290.176 229.089L289.591 229.113ZM289.35 223.224V222.638H288.74L288.765 223.247L289.35 223.224ZM289.963 223.224V223.809H290.549V223.224H289.963ZM289.963 222.983L290.002 222.398L289.378 222.357V222.983H289.963ZM293.62 223.224L293.581 223.808L293.617 223.81L293.654 223.808L293.62 223.224ZM297.758 222.983H298.343V222.362L297.724 222.398L297.758 222.983ZM294.036 231.763L294.178 232.331L294.603 232.224L294.621 231.787L294.036 231.763ZM294.145 229.113L294.73 229.137L294.731 229.114L294.73 229.091L294.145 229.113ZM294.036 226.201L294.621 226.179L294.602 225.677L294.103 225.62L294.036 226.201ZM292.897 226.07L292.964 225.488L292.894 225.48L292.825 225.489L292.897 226.07ZM292.722 226.092L292.649 225.511L292.172 225.57L292.138 226.051L292.722 226.092ZM292.459 229.814L291.875 229.773L291.872 229.821L291.876 229.869L292.459 229.814ZM292.634 231.675L292.051 231.73L292.096 232.206L292.572 232.257L292.634 231.675ZM293.861 231.806L293.798 232.389L293.902 232.4L294.003 232.374L293.861 231.806ZM297.809 225.968L297.305 225.924L297.204 227.091L297.707 227.135L297.809 225.968ZM296.67 226.465L296.429 229.771L297.597 229.856L297.838 226.55L296.67 226.465ZM296.431 229.87L296.89 234.686L298.056 234.575L297.596 229.758L296.431 229.87ZM297.473 234.045H296.816V235.216H297.473V234.045ZM296.231 234.631V234.894H297.402V234.631H296.231ZM296.855 234.309L293.176 234.068L293.1 235.237L296.778 235.478L296.855 234.309ZM293.104 234.068L288.966 234.309L289.034 235.478L293.172 235.237L293.104 234.068ZM289.585 234.894V231.325H288.414V234.894H289.585ZM288.949 231.908L289.453 231.952L289.554 230.785L289.051 230.741L288.949 231.908ZM290.089 231.391L290.176 229.136L289.006 229.091L288.918 231.346L290.089 231.391ZM290.176 229.089L289.935 223.2L288.765 223.247L289.006 229.137L290.176 229.089ZM289.35 223.809H289.963V222.638H289.35V223.809ZM290.549 223.224V222.983H289.378V223.224H290.549ZM289.925 223.567L293.581 223.808L293.658 222.639L290.002 222.398L289.925 223.567ZM293.654 223.808L297.792 223.567L297.724 222.398L293.586 222.639L293.654 223.808ZM297.172 222.983V226.552H298.343V222.983H297.172ZM294.621 231.787L294.73 229.137L293.56 229.089L293.451 231.738L294.621 231.787ZM294.73 229.091L294.621 226.179L293.451 226.223L293.56 229.135L294.73 229.091ZM294.103 225.62L292.964 225.488L292.83 226.652L293.969 226.783L294.103 225.62ZM292.825 225.489L292.649 225.511L292.795 226.673L292.97 226.651L292.825 225.489ZM292.138 226.051L291.875 229.773L293.043 229.855L293.306 226.133L292.138 226.051ZM291.876 229.869L292.051 231.73L293.217 231.62L293.042 229.759L291.876 229.869ZM292.572 232.257L293.798 232.389L293.923 231.224L292.697 231.093L292.572 232.257ZM294.003 232.374L294.178 232.331L293.894 231.195L293.719 231.238L294.003 232.374ZM307.41 226.552L307.359 227.135L307.995 227.19V226.552H307.41ZM306.906 226.508L306.957 225.924L306.345 225.871L306.321 226.485L306.906 226.508ZM306.819 228.763L306.234 228.74L306.233 228.762L306.234 228.785L306.819 228.763ZM307.038 234.653V235.238H307.645L307.623 234.631L307.038 234.653ZM306.446 234.653V234.067H305.861V234.653H306.446ZM306.446 234.894L306.408 235.478L307.032 235.519V234.894H306.446ZM302.79 234.653L302.291 234.959L302.449 235.217L302.751 235.237L302.79 234.653ZM302.374 233.974L302.873 233.668L301.736 231.813L301.789 233.988L302.374 233.974ZM302.505 239.426L302.545 240.01L303.104 239.973L303.091 239.412L302.505 239.426ZM298.915 239.667L298.33 239.642L298.302 240.295L298.954 240.251L298.915 239.667ZM299.396 228.062L299.981 228.087L299.985 227.991L299.958 227.899L299.396 228.062ZM297.995 223.245V222.66H297.215L297.433 223.409L297.995 223.245ZM300.951 223.245L301.463 222.962L301.296 222.66H300.951V223.245ZM301.761 224.712L301.248 224.995L301.848 226.081L302.305 224.928L301.761 224.712ZM302.352 223.224L302.324 222.639L301.947 222.657L301.808 223.007L302.352 223.224ZM307.41 222.983H307.995V222.369L307.382 222.398L307.41 222.983ZM303.688 231.763L303.815 232.334L304.241 232.24L304.272 231.804L303.688 231.763ZM303.95 228.062L304.534 228.104L304.538 228.052L304.533 228.001L303.95 228.062ZM303.753 226.201L304.336 226.14L304.285 225.663L303.808 225.618L303.753 226.201ZM303.053 226.136L303.107 225.553L302.889 225.532L302.711 225.66L303.053 226.136ZM302.352 226.639L302.01 226.164L301.779 226.33L301.767 226.615L302.352 226.639ZM302.264 228.763L301.679 228.739V228.758V228.777L302.264 228.763ZM302.33 231.587L301.745 231.601L301.756 232.075L302.222 232.163L302.33 231.587ZM303.491 231.806L303.382 232.382L303.5 232.404L303.618 232.378L303.491 231.806ZM307.461 225.968L306.957 225.924L306.856 227.091L307.359 227.135L307.461 225.968ZM306.321 226.485L306.234 228.74L307.404 228.786L307.491 226.531L306.321 226.485ZM306.234 228.785L306.452 234.675L307.623 234.631L307.404 228.741L306.234 228.785ZM307.038 234.067H306.446V235.238H307.038V234.067ZM305.861 234.653V234.894H307.032V234.653H305.861ZM306.485 234.309L302.828 234.068L302.751 235.237L306.408 235.478L306.485 234.309ZM303.289 234.347L302.873 233.668L301.875 234.28L302.291 234.959L303.289 234.347ZM301.789 233.988L301.92 239.44L303.091 239.412L302.959 233.96L301.789 233.988ZM302.466 238.842L298.875 239.082L298.954 240.251L302.545 240.01L302.466 238.842ZM299.5 239.691L299.981 228.087L298.811 228.038L298.33 239.642L299.5 239.691ZM299.958 227.899L298.557 223.082L297.433 223.409L298.834 228.226L299.958 227.899ZM297.995 223.831H300.951V222.66H297.995V223.831ZM300.438 223.528L301.248 224.995L302.273 224.429L301.463 222.962L300.438 223.528ZM302.305 224.928L302.896 223.44L301.808 223.007L301.217 224.496L302.305 224.928ZM302.38 223.808L307.438 223.568L307.382 222.398L302.324 222.639L302.38 223.808ZM306.824 222.983V226.552H307.995V222.983H306.824ZM304.272 231.804L304.534 228.104L303.366 228.021L303.104 231.721L304.272 231.804ZM304.533 228.001L304.336 226.14L303.171 226.263L303.368 228.124L304.533 228.001ZM303.808 225.618L303.107 225.553L302.998 226.719L303.699 226.784L303.808 225.618ZM302.711 225.66L302.01 226.164L302.694 227.115L303.394 226.611L302.711 225.66ZM301.767 226.615L301.679 228.739L302.85 228.787L302.937 226.663L301.767 226.615ZM301.679 228.777L301.745 231.601L302.916 231.574L302.85 228.749L301.679 228.777ZM302.222 232.163L303.382 232.382L303.599 231.231L302.439 231.012L302.222 232.163ZM303.618 232.378L303.815 232.334L303.561 231.191L303.364 231.235L303.618 232.378Z" fill="#2E282D"/>
</g>
<path d="M265.33 189.051L264.655 200.637L265.33 211.703H260.302L260.64 199.626L260.456 193.434L257.912 193.71V188.713L264.717 189.051H265.33ZM271.903 207.473L275.674 207.749L275.827 207.688L276.072 199.626L275.857 193.311L272.118 193.066L271.934 193.097L271.505 200.637L271.903 207.473ZM268.01 188.713L273.129 189.051L281.13 188.713V193.71L280.455 193.679L280.057 200.637L280.731 211.703H279.812V212.071L272.455 211.734L266.662 212.071V207.075L267.305 207.105L267.489 199.626L267.152 189.051H268.01V188.713ZM295.986 189.051L300.001 188.713L293.35 199.626L286.514 211.703H282.529L289.763 200.637L295.986 189.051ZM288.844 198.768L285.748 198.553L282.253 198.768V195.764L282.682 195.794L282.744 193.894L282.56 188.928H283.05V188.713L286.146 188.928L289.641 188.713V191.748L289.211 191.687L288.997 194.476L289.395 198.553H288.844V198.768ZM285.165 194.476L285.319 196.07L286.361 196.162L286.483 196.131L286.606 193.894L286.483 191.441L285.533 191.319L285.38 191.349L285.165 194.476ZM300.768 205.358L300.308 205.327L300.124 208.117L300.522 212.194H299.971V212.408L296.875 212.194L293.38 212.408V209.404L293.779 209.435L293.871 207.534L293.656 202.569H294.177V202.354L297.273 202.569L300.768 202.354V205.358ZM297.61 209.772L297.702 207.534L297.61 205.082L296.66 204.959L296.507 204.99L296.292 208.117L296.446 209.68L297.457 209.803L297.61 209.772Z" fill="white"/>
<mask id="mask2_2_40" style="mask-type:luminance" maskUnits="userSpaceOnUse" x="256" y="187" width="47" height="27">
<path d="M302.379 187.703H256.379V213.703H302.379V187.703Z" fill="white"/>
<path d="M265.33 189.051L264.655 200.637L265.33 211.703H260.302L260.64 199.626L260.456 193.434L257.912 193.71V188.713L264.717 189.051H265.33ZM271.903 207.473L275.674 207.749L275.827 207.688L276.072 199.626L275.857 193.311L272.118 193.066L271.934 193.097L271.505 200.637L271.903 207.473ZM268.01 188.713L273.129 189.051L281.13 188.713V193.71L280.455 193.679L280.057 200.637L280.731 211.703H279.812V212.071L272.455 211.734L266.662 212.071V207.075L267.305 207.105L267.489 199.626L267.152 189.051H268.01V188.713ZM295.986 189.051L300.001 188.713L293.35 199.626L286.514 211.703H282.529L289.763 200.637L295.986 189.051ZM288.844 198.768L285.748 198.553L282.253 198.768V195.764L282.682 195.794L282.744 193.894L282.56 188.928H283.05V188.713L286.146 188.928L289.641 188.713V191.748L289.211 191.687L288.997 194.476L289.395 198.553H288.844V198.768ZM285.165 194.476L285.319 196.07L286.361 196.162L286.483 196.131L286.606 193.894L286.483 191.441L285.533 191.319L285.38 191.349L285.165 194.476ZM300.768 205.358L300.308 205.327L300.124 208.117L300.522 212.194H299.971V212.408L296.875 212.194L293.38 212.408V209.404L293.779 209.435L293.871 207.534L293.656 202.569H294.177V202.354L297.273 202.569L300.768 202.354V205.358ZM297.61 209.772L297.702 207.534L297.61 205.082L296.66 204.959L296.507 204.99L296.292 208.117L296.446 209.68L297.457 209.803L297.61 209.772Z" fill="black"/>
</mask>
<g mask="url(#mask2_2_40)">
<path d="M265.33 189.051L266.004 189.09L266.046 188.375H265.33V189.051ZM264.655 200.637L263.981 200.598L263.978 200.638L263.981 200.678L264.655 200.637ZM265.33 211.703V212.379H266.048L266.004 211.662L265.33 211.703ZM260.303 211.703L259.627 211.684L259.608 212.379H260.303V211.703ZM260.64 199.626L261.315 199.645L261.316 199.625L261.315 199.606L260.64 199.626ZM260.456 193.434L261.131 193.414L261.109 192.683L260.383 192.762L260.456 193.434ZM257.912 193.71H257.236V194.463L257.984 194.381L257.912 193.71ZM257.912 188.713L257.945 188.039L257.236 188.003V188.713H257.912ZM264.717 189.051L264.683 189.725L264.7 189.726H264.717V189.051ZM264.655 189.011L263.981 200.598L265.33 200.677L266.004 189.09L264.655 189.011ZM263.981 200.678L264.655 211.744L266.004 211.662L265.33 200.596L263.981 200.678ZM265.33 211.028H260.303V212.379H265.33V211.028ZM260.978 211.722L261.315 199.645L259.964 199.607L259.627 211.684L260.978 211.722ZM261.315 199.606L261.131 193.414L259.78 193.454L259.964 199.646L261.315 199.606ZM260.383 192.762L257.839 193.038L257.984 194.381L260.529 194.106L260.383 192.762ZM258.587 193.71V188.713H257.236V193.71H258.587ZM257.878 189.388L264.683 189.725L264.75 188.376L257.945 188.039L257.878 189.388ZM264.717 189.726H265.33V188.375H264.717V189.726ZM271.903 207.473L271.229 207.512L271.263 208.104L271.854 208.147L271.903 207.473ZM275.674 207.749L275.624 208.423L275.78 208.434L275.924 208.376L275.674 207.749ZM275.827 207.688L276.078 208.315L276.489 208.15L276.502 207.708L275.827 207.688ZM276.072 199.626L276.747 199.646L276.748 199.625L276.747 199.603L276.072 199.626ZM275.857 193.311L276.533 193.288L276.512 192.677L275.902 192.637L275.857 193.311ZM272.118 193.066L272.162 192.392L272.084 192.387L272.007 192.4L272.118 193.066ZM271.934 193.097L271.823 192.43L271.29 192.519L271.259 193.058L271.934 193.097ZM271.505 200.637L270.83 200.599L270.828 200.638L270.83 200.677L271.505 200.637ZM268.01 188.713L268.055 188.039L267.335 187.992V188.713H268.01ZM273.129 189.051L273.085 189.725L273.121 189.727L273.158 189.726L273.129 189.051ZM281.13 188.713H281.805V188.009L281.101 188.038L281.13 188.713ZM281.13 193.71L281.099 194.385L281.805 194.417V193.71H281.13ZM280.455 193.679L280.486 193.004L279.819 192.974L279.781 193.64L280.455 193.679ZM280.057 200.637L279.382 200.599L279.38 200.639L279.383 200.678L280.057 200.637ZM280.731 211.703V212.379H281.449L281.406 211.662L280.731 211.703ZM279.812 211.703V211.028H279.136V211.703H279.812ZM279.812 212.071L279.781 212.746L280.487 212.778V212.071H279.812ZM272.455 211.734L272.486 211.059L272.451 211.057L272.416 211.059L272.455 211.734ZM266.662 212.071H265.986V212.787L266.701 212.745L266.662 212.071ZM266.662 207.075L266.694 206.4L265.986 206.366V207.075H266.662ZM267.305 207.105L267.273 207.78L267.964 207.813L267.981 207.122L267.305 207.105ZM267.489 199.626L268.165 199.642V199.623L268.164 199.604L267.489 199.626ZM267.152 189.051V188.375H266.455L266.477 189.072L267.152 189.051ZM268.01 189.051V189.726H268.686V189.051H268.01ZM271.854 208.147L275.624 208.423L275.723 207.075L271.953 206.799L271.854 208.147ZM275.924 208.376L276.078 208.315L275.576 207.06L275.423 207.122L275.924 208.376ZM276.502 207.708L276.747 199.646L275.397 199.605L275.152 207.667L276.502 207.708ZM276.747 199.603L276.533 193.288L275.182 193.334L275.397 199.649L276.747 199.603ZM275.902 192.637L272.162 192.392L272.074 193.74L275.813 193.985L275.902 192.637ZM272.007 192.4L271.823 192.43L272.045 193.763L272.229 193.732L272.007 192.4ZM271.259 193.058L270.83 200.599L272.179 200.676L272.608 193.135L271.259 193.058ZM270.83 200.677L271.229 207.512L272.578 207.434L272.179 200.598L270.83 200.677ZM267.966 189.387L273.085 189.725L273.174 188.376L268.055 188.039L267.966 189.387ZM273.158 189.726L281.158 189.388L281.101 188.038L273.101 188.375L273.158 189.726ZM280.454 188.713V193.71H281.805V188.713H280.454ZM281.161 193.035L280.486 193.004L280.425 194.354L281.099 194.385L281.161 193.035ZM279.781 193.64L279.382 200.599L280.731 200.676L281.13 193.718L279.781 193.64ZM279.383 200.678L280.057 211.744L281.406 211.662L280.731 200.596L279.383 200.678ZM280.731 211.028H279.812V212.379H280.731V211.028ZM279.136 211.703V212.071H280.487V211.703H279.136ZM279.843 211.396L272.486 211.059L272.424 212.409L279.781 212.746L279.843 211.396ZM272.416 211.059L266.622 211.396L266.701 212.745L272.494 212.408L272.416 211.059ZM267.337 212.071V207.075H265.986V212.071H267.337ZM266.629 207.749L267.273 207.78L267.337 206.43L266.694 206.4L266.629 207.749ZM267.981 207.122L268.165 199.642L266.814 199.609L266.63 207.089L267.981 207.122ZM268.164 199.604L267.827 189.029L266.477 189.072L266.814 199.647L268.164 199.604ZM267.152 189.726H268.01V188.375H267.152V189.726ZM268.686 189.051V188.713H267.335V189.051H268.686ZM295.986 189.051L295.929 188.377L295.564 188.408L295.391 188.731L295.986 189.051ZM300.001 188.713L300.578 189.065L301.271 187.929L299.945 188.04L300.001 188.713ZM293.35 199.626L292.773 199.274L292.767 199.284L292.762 199.293L293.35 199.626ZM286.514 211.703V212.379H286.908L287.102 212.036L286.514 211.703ZM282.529 211.703L281.964 211.333L281.28 212.379H282.529V211.703ZM289.763 200.637L290.329 201.007L290.345 200.983L290.358 200.957L289.763 200.637ZM288.844 198.768L288.797 199.442L289.519 199.492V198.768H288.844ZM285.748 198.553L285.794 197.879L285.75 197.876L285.706 197.879L285.748 198.553ZM282.253 198.768H281.578V199.486L282.295 199.442L282.253 198.768ZM282.253 195.764L282.301 195.09L281.578 195.038V195.764H282.253ZM282.682 195.794L282.634 196.468L283.335 196.518L283.358 195.816L282.682 195.794ZM282.744 193.894L283.419 193.915L283.42 193.892L283.419 193.869L282.744 193.894ZM282.56 188.928V188.252H281.859L281.885 188.953L282.56 188.928ZM283.05 188.928V189.604H283.726V188.928H283.05ZM283.05 188.713L283.097 188.039L282.375 187.989V188.713H283.05ZM286.146 188.928L286.099 189.602L286.143 189.605L286.188 189.602L286.146 188.928ZM289.641 188.713H290.316V187.995L289.599 188.039L289.641 188.713ZM289.641 191.748L289.545 192.417L290.316 192.527V191.748H289.641ZM289.211 191.687L289.307 191.018L288.593 190.916L288.538 191.635L289.211 191.687ZM288.997 194.476L288.323 194.424L288.319 194.483L288.324 194.542L288.997 194.476ZM289.395 198.553V199.229H290.14L290.068 198.487L289.395 198.553ZM288.844 198.553V197.877H288.168V198.553H288.844ZM285.165 194.476L284.491 194.43L284.487 194.485L284.493 194.541L285.165 194.476ZM285.319 196.07L284.646 196.135L284.7 196.694L285.259 196.743L285.319 196.07ZM286.361 196.162L286.301 196.835L286.414 196.845L286.525 196.817L286.361 196.162ZM286.483 196.131L286.647 196.787L287.131 196.666L287.158 196.168L286.483 196.131ZM286.606 193.894L287.281 193.931L287.282 193.895L287.281 193.86L286.606 193.894ZM286.483 191.441L287.158 191.408L287.13 190.844L286.57 190.771L286.483 191.441ZM285.533 191.319L285.62 190.649L285.509 190.635L285.401 190.656L285.533 191.319ZM285.38 191.349L285.247 190.687L284.741 190.788L284.706 191.303L285.38 191.349ZM300.768 205.358L300.723 206.032L301.443 206.08V205.358H300.768ZM300.308 205.327L300.353 204.653L299.678 204.608L299.634 205.283L300.308 205.327ZM300.124 208.117L299.45 208.072L299.446 208.127L299.452 208.182L300.124 208.117ZM300.522 212.194V212.869H301.267L301.195 212.128L300.522 212.194ZM299.971 212.194V211.518H299.295V212.194H299.971ZM299.971 212.408L299.924 213.082L300.646 213.132V212.408H299.971ZM296.875 212.194L296.921 211.52L296.877 211.517L296.833 211.519L296.875 212.194ZM293.38 212.408H292.705V213.127L293.422 213.082L293.38 212.408ZM293.38 209.404L293.432 208.731L292.705 208.675V209.404H293.38ZM293.779 209.435L293.727 210.108L294.42 210.162L294.454 209.467L293.779 209.435ZM293.871 207.534L294.546 207.567L294.547 207.536L294.546 207.505L293.871 207.534ZM293.656 202.569V201.893H292.951L292.981 202.598L293.656 202.569ZM294.177 202.569V203.244H294.853V202.569H294.177ZM294.177 202.354L294.224 201.68L293.502 201.63V202.354H294.177ZM297.273 202.569L297.227 203.243L297.271 203.246L297.315 203.243L297.273 202.569ZM300.768 202.354H301.443V201.636L300.726 201.68L300.768 202.354ZM297.61 209.772L297.743 210.434L298.264 210.33L298.285 209.8L297.61 209.772ZM297.702 207.534L298.377 207.562L298.379 207.536L298.378 207.509L297.702 207.534ZM297.61 205.082L298.286 205.057L298.264 204.485L297.697 204.412L297.61 205.082ZM296.66 204.959L296.747 204.289L296.637 204.275L296.528 204.297L296.66 204.959ZM296.507 204.99L296.374 204.328L295.868 204.429L295.833 204.944L296.507 204.99ZM296.292 208.117L295.618 208.07L295.614 208.127L295.62 208.183L296.292 208.117ZM296.446 209.68L295.773 209.746L295.826 210.285L296.364 210.351L296.446 209.68ZM297.457 209.803L297.376 210.473L297.483 210.486L297.59 210.465L297.457 209.803ZM296.042 189.724L300.058 189.387L299.945 188.04L295.929 188.377L296.042 189.724ZM299.424 188.362L292.773 199.274L293.927 199.977L300.578 189.065L299.424 188.362ZM292.762 199.293L285.926 211.37L287.102 212.036L293.938 199.959L292.762 199.293ZM286.514 211.028H282.529V212.379H286.514V211.028ZM283.095 212.073L290.329 201.007L289.198 200.268L281.964 211.333L283.095 212.073ZM290.358 200.957L296.581 189.37L295.391 188.731L289.168 200.318L290.358 200.957ZM288.89 198.094L285.794 197.879L285.701 199.227L288.797 199.442L288.89 198.094ZM285.706 197.879L282.212 198.093L282.295 199.442L285.789 199.227L285.706 197.879ZM282.929 198.768V195.764H281.578V198.768H282.929ZM282.205 196.437L282.634 196.468L282.73 195.12L282.301 195.09L282.205 196.437ZM283.358 195.816L283.419 193.915L282.068 193.872L282.007 195.772L283.358 195.816ZM283.419 193.869L283.235 188.903L281.885 188.953L282.069 193.919L283.419 193.869ZM282.56 189.604H283.05V188.252H282.56V189.604ZM283.726 188.928V188.713H282.375V188.928H283.726ZM283.003 189.387L286.099 189.602L286.193 188.254L283.097 188.039L283.003 189.387ZM286.188 189.602L289.682 189.388L289.599 188.039L286.105 188.254L286.188 189.602ZM288.965 188.713V191.748H290.316V188.713H288.965ZM289.736 191.079L289.307 191.018L289.116 192.355L289.545 192.417L289.736 191.079ZM288.538 191.635L288.323 194.424L289.671 194.528L289.885 191.738L288.538 191.635ZM288.324 194.542L288.723 198.619L290.068 198.487L289.669 194.41L288.324 194.542ZM289.395 197.877H288.844V199.229H289.395V197.877ZM288.168 198.553V198.768H289.519V198.553H288.168ZM284.493 194.541L284.646 196.135L285.991 196.005L285.838 194.411L284.493 194.541ZM285.259 196.743L286.301 196.835L286.42 195.489L285.378 195.397L285.259 196.743ZM286.525 196.817L286.647 196.787L286.319 195.476L286.197 195.507L286.525 196.817ZM287.158 196.168L287.281 193.931L285.931 193.857L285.809 196.094L287.158 196.168ZM287.281 193.86L287.158 191.408L285.809 191.475L285.931 193.927L287.281 193.86ZM286.57 190.771L285.62 190.649L285.447 191.989L286.397 192.112L286.57 190.771ZM285.401 190.656L285.247 190.687L285.512 192.012L285.666 191.981L285.401 190.656ZM284.706 191.303L284.491 194.43L285.839 194.522L286.054 191.396L284.706 191.303ZM300.813 204.684L300.353 204.653L300.263 206.001L300.723 206.032L300.813 204.684ZM299.634 205.283L299.45 208.072L300.798 208.161L300.982 205.372L299.634 205.283ZM299.452 208.182L299.85 212.259L301.195 212.128L300.796 208.051L299.452 208.182ZM300.522 211.518H299.971V212.869H300.522V211.518ZM299.295 212.194V212.408H300.646V212.194H299.295ZM300.017 211.734L296.921 211.52L296.828 212.868L299.924 213.082L300.017 211.734ZM296.833 211.519L293.339 211.734L293.422 213.082L296.916 212.868L296.833 211.519ZM294.056 212.408V209.404H292.705V212.408H294.056ZM293.328 210.078L293.727 210.108L293.831 208.761L293.432 208.731L293.328 210.078ZM294.454 209.467L294.546 207.567L293.196 207.502L293.104 209.402L294.454 209.467ZM294.546 207.505L294.331 202.539L292.981 202.598L293.196 207.563L294.546 207.505ZM293.656 203.244H294.177V201.893H293.656V203.244ZM294.853 202.569V202.354H293.502V202.569H294.853ZM294.131 203.028L297.227 203.243L297.32 201.895L294.224 201.68L294.131 203.028ZM297.315 203.243L300.809 203.028L300.726 201.68L297.232 201.894L297.315 203.243ZM300.092 202.354V205.358H301.443V202.354H300.092ZM298.285 209.8L298.377 207.562L297.027 207.507L296.935 209.744L298.285 209.8ZM298.378 207.509L298.286 205.057L296.935 205.107L297.027 207.56L298.378 207.509ZM297.697 204.412L296.747 204.289L296.574 205.63L297.524 205.752L297.697 204.412ZM296.528 204.297L296.374 204.328L296.639 205.653L296.793 205.622L296.528 204.297ZM295.833 204.944L295.618 208.07L296.966 208.163L297.181 205.036L295.833 204.944ZM295.62 208.183L295.773 209.746L297.118 209.614L296.965 208.051L295.62 208.183ZM296.364 210.351L297.376 210.473L297.538 209.132L296.527 209.009L296.364 210.351ZM297.59 210.465L297.743 210.434L297.478 209.109L297.325 209.14L297.59 210.465Z" fill="#2E282D"/>
</g>
<path d="M127.586 153.98L131.61 153.324V158.184L124.455 157.856L118.821 158.184V153.324L119.447 153.354L119.626 146.08L119.298 135.795H124.187L123.531 147.064L123.919 153.712L127.586 153.98ZM131.898 135.795H132.703V135.467L137.712 135.795L144.181 135.467V135.795H144.867L144.271 143.367L144.748 149.568H141.915V150.075L136.728 149.419L136.281 149.479L136.758 157.826H131.898L132.226 146.08L131.898 135.795ZM136.549 139.73L136.221 145.424L137.712 145.543L140.156 145.335L140.365 142.383L140.246 139.998L136.728 139.7L136.549 139.73ZM152.249 135.795H153.054V135.467L158.062 135.795L164.532 135.467V135.795H165.217L164.621 141.727L162.594 146.617L164.621 153.086L165.098 157.677H162.266V158.184L157.079 157.528L157.108 157.826H155.26L153.054 158.184V157.826H152.249L152.577 146.08L152.249 135.795ZM157.079 147.809L156.542 147.899L156.87 153.563L158.062 153.652L160.597 153.444L160.716 152.102L158.539 147.988L157.079 147.809ZM156.661 143.814L158.062 143.904L159.464 143.814L160.716 140.773L160.656 140.028L157.079 139.7L156.9 139.73L156.661 143.814ZM171.445 157.856L165.81 158.184V153.324L166.437 153.354L166.615 146.08L166.287 135.795H171.177L170.521 147.064L170.908 153.712L174.575 153.98L174.724 153.921L174.963 146.08L174.635 135.795H179.494L178.839 147.064L179.494 157.826H178.6V158.184L171.445 157.856ZM180.606 135.795H181.411V135.467L186.419 135.795L192.889 135.467V135.795H193.574L192.978 143.367L193.455 149.568H191.517L194.469 157.826H189.58L186.867 149.628L185.436 149.419L184.988 149.479L185.465 157.826H180.606L180.934 146.08L180.606 135.795ZM185.257 139.73L184.929 145.424L186.419 145.543L188.864 145.335L189.073 142.383L188.953 139.998L185.436 139.7L185.257 139.73ZM195.462 146.08L195.134 135.795H200.619L203.75 146.766L203.809 146.08L203.481 135.795H208.341L207.685 147.064L208.341 157.826H203.332L199.457 145.543L199.337 147.064L199.993 157.826H195.134L195.462 146.08ZM213.424 157.826L213.752 146.08L213.573 139.76L208.505 140.326V135.467L215.124 135.795L223.233 135.467V140.326L218.075 139.998L217.658 147.064L218.314 157.826H213.424Z" fill="white"/>
<path d="M157.275 110.582L156.645 120.954L157.821 126.412L148.037 125.95L140.983 126.412V124.984H138.8L139.514 115.201L145.35 115.411L145.518 120.282L146.652 120.492L151.648 120.156L151.732 113.648L149.339 115.033L140.479 111.674L140.983 101.513L140.689 94.4168L148.163 94.8787L157.946 94.4168V97.1881H158.786L157.275 110.582ZM151.858 110.33L151.9 100.799L146.778 100.379L146.442 100.421L146.232 107.475L149.339 110.205L151.858 110.33ZM167.593 120.114L172.758 120.492L172.968 120.408L173.303 109.365L173.01 100.715L167.887 100.379L167.635 100.421L167.047 110.75L167.593 120.114ZM162.26 94.4168L169.273 94.8787L180.232 94.4168V101.261L179.308 101.219L178.762 110.75L179.686 125.908H178.426V126.412L168.349 125.95L160.413 126.412V119.568L161.295 119.61L161.547 109.365L161.085 94.8787H162.26V94.4168ZM200.581 94.8787L206.082 94.4168L196.97 109.365L187.607 125.908H182.148L192.058 110.75L200.581 94.8787ZM190.798 108.189L186.557 107.895L181.77 108.189V104.074L182.358 104.116L182.442 101.513L182.19 94.7108H182.862V94.4168L187.103 94.7108L191.89 94.4168V98.5737L191.302 98.4897L191.008 102.311L191.554 107.895H190.798V108.189ZM185.759 102.311L185.969 104.494L187.397 104.62L187.565 104.578L187.733 101.513L187.565 98.1538L186.263 97.9859L186.053 98.0279L185.759 102.311ZM207.131 117.217L206.502 117.175L206.25 120.996L206.795 126.58H206.04V126.874L201.799 126.58L197.012 126.874V122.759L197.558 122.801L197.684 120.198L197.39 113.396H198.104V113.102L202.345 113.396L207.131 113.102V117.217ZM202.807 123.263L202.933 120.198L202.807 116.839L201.505 116.671L201.295 116.713L201.001 120.996L201.211 123.137L202.597 123.305L202.807 123.263Z" fill="white"/>
<defs>
<filter id="filter0_d_2_40" x="157.555" y="168.119" width="174.157" height="129.71" filterUnits="userSpaceOnUse" color-interpolation-filters="sRGB">
<feFlood flood-opacity="0" result="BackgroundImageFix"/>
<feColorMatrix in="SourceAlpha" type="matrix" values="0 0 0 0 0 0 0 0 0 0 0 0 0 0 0 0 0 0 127 0" result="hardAlpha"/>
<feOffset dx="-4.34783" dy="6.21119"/>
<feGaussianBlur stdDeviation="5.09318"/>
<feComposite in2="hardAlpha" operator="out"/>
<feColorMatrix type="matrix" values="0 0 0 0 0 0 0 0 0 0 0 0 0 0 0 0 0 0 0.25 0"/>
<feBlend mode="normal" in2="BackgroundImageFix" result="effect1_dropShadow_2_40"/>
<feBlend mode="normal" in="SourceGraphic" in2="effect1_dropShadow_2_40" result="shape"/>
</filter>
</defs>
</svg>
