<svg width="311" height="265" viewBox="0 0 311 265" fill="none" xmlns="http://www.w3.org/2000/svg">
<g clip-path="url(#clip0_2_62)">
<g filter="url(#filter0_d_2_62)">
<path d="M293.243 125.521H13.7567C6.15908 125.521 0 131.68 0 139.278V176.038C0 183.635 6.15908 189.794 13.7567 189.794H293.243C300.841 189.794 307 183.635 307 176.038V139.278C307 131.68 300.841 125.521 293.243 125.521Z" fill="white"/>
<path d="M293.244 125.834H13.7567C6.33174 125.834 0.312653 131.853 0.312653 139.278V176.038C0.312653 183.463 6.33174 189.482 13.7567 189.482H293.244C300.669 189.482 306.688 183.463 306.688 176.038V139.278C306.688 131.853 300.669 125.834 293.244 125.834Z" stroke="#C5C5C5" stroke-width="0.625304"/>
</g>
<path d="M88.5507 163.171L92.3102 163.446L92.4631 163.385L92.7076 155.346L92.4936 149.05L88.7647 148.805L88.5813 148.836L88.1534 156.355L88.5507 163.171ZM84.6689 144.465L89.7733 144.801L97.7508 144.465V149.447L97.0784 149.416L96.681 156.355L97.3535 167.389H96.4365V167.755L89.1009 167.419L83.3241 167.755V162.773L83.9659 162.804L84.1493 155.346L83.8131 144.801H84.6689V144.465ZM112.564 144.801L116.568 144.465L109.936 155.346L103.12 167.389H99.1461L106.359 156.355L112.564 144.801ZM105.442 154.49L102.355 154.276L98.871 154.49V151.495L99.2989 151.525L99.36 149.63L99.1766 144.679H99.6657V144.465L102.753 144.679L106.237 144.465V147.491L105.809 147.43L105.595 150.211L105.993 154.276H105.442V154.49ZM101.775 150.211L101.928 151.8L102.967 151.892L103.089 151.862L103.211 149.63L103.089 147.185L102.141 147.063L101.989 147.093L101.775 150.211ZM117.332 161.062L116.874 161.031L116.69 163.813L117.088 167.878H116.538V168.092L113.451 167.878L109.966 168.092V165.096L110.363 165.127L110.455 163.232L110.241 158.28H110.761V158.066L113.848 158.28L117.332 158.066V161.062ZM114.184 165.463L114.276 163.232L114.184 160.787L113.237 160.664L113.084 160.695L112.87 163.813L113.023 165.371L114.031 165.494L114.184 165.463Z" fill="#0052FF"/>
<path d="M125.052 144.801H125.877V144.465L131.012 144.801L137.645 144.465V144.801H138.348L137.736 152.565L138.226 158.922H135.322V159.442L130.003 158.769L129.545 158.83L130.034 167.389H125.052L125.388 155.346L125.052 144.801ZM129.82 148.836L129.484 154.674L131.012 154.796L133.518 154.582L133.732 151.556L133.61 149.111L130.003 148.805L129.82 148.836ZM139.111 144.801H139.936V144.465L145.071 144.801L151.704 144.465V144.801H152.407L151.795 152.565L152.284 158.922H150.298L153.324 167.389H148.311L145.529 158.983L144.062 158.769L143.604 158.83L144.093 167.389H139.111L139.447 155.346L139.111 144.801ZM143.879 148.836L143.543 154.674L145.071 154.796L147.577 154.582L147.791 151.556L147.669 149.111L144.062 148.805L143.879 148.836ZM153.761 167.755V162.773L154.403 162.804L154.586 155.346L154.25 144.801H155.106V144.465L160.21 144.801L166.873 144.465V149.447L159.201 148.805L159.018 148.836L158.712 154.032L160.21 154.123L164.55 153.787V158.769L159.201 158.097L158.682 158.219L158.987 163.171L162.747 163.446L166.873 162.773V167.755L159.538 167.419L153.761 167.755ZM173.085 148.805L172.841 148.836L172.688 153.971L180.727 156.232L180.268 163.782L181.124 167.755L174.002 167.419L168.867 167.755V166.716H167.278L167.798 159.595L172.046 159.747L172.168 163.293L172.994 163.446L176.631 163.201L176.692 158.464L168.501 157.027L168.867 149.63L168.653 144.465L174.094 144.801L181.216 144.465V146.482H181.827L181.338 153.512L177.059 153.054L176.937 149.111L173.085 148.805ZM187.034 167.389H182.052L182.541 164.057L182.266 164.088V159.106L183.306 159.167L183.886 155.346L184.436 149.264L183.581 149.447V144.465L187.371 144.801L193.361 144.465V149.447L193.025 149.416L193.484 156.355L194.034 159.167L195.348 159.106V164.088L194.92 164.057L195.532 167.389H190.519L190.183 163.69L187.279 163.507L187.034 167.389ZM187.737 156.355L187.554 159.442L189.755 159.35L189.357 155.346L188.716 151.036L187.737 156.355ZM204.983 163.446L209.109 162.773V167.755L201.774 167.419L195.997 167.755V162.773L196.639 162.804L196.822 155.346L196.486 144.801H201.498L200.826 156.355L201.223 163.171L204.983 163.446ZM209.25 167.755V162.773L209.891 162.804L210.075 155.346L209.739 144.801H210.594V144.465L215.699 144.801L222.362 144.465V149.447L214.69 148.805L214.507 148.836L214.201 154.032L215.699 154.123L220.039 153.787V158.769L214.69 158.097L214.171 158.219L214.476 163.171L218.236 163.446L222.362 162.773V167.755L215.026 167.419L209.25 167.755Z" fill="#2E282D"/>
<g filter="url(#filter1_d_2_62)">
<path d="M293.243 197.357H13.7567C6.15908 197.357 0 203.516 0 211.114V247.117C0 254.715 6.15908 260.874 13.7567 260.874H293.243C300.841 260.874 307 254.715 307 247.117V211.114C307 203.516 300.841 197.357 293.243 197.357Z" fill="white"/>
<path d="M293.244 197.67H13.7567C6.33174 197.67 0.312653 203.689 0.312653 211.114V247.118C0.312653 254.543 6.33174 260.562 13.7567 260.562H293.244C300.669 260.562 306.688 254.543 306.688 247.118V211.114C306.688 203.689 300.669 197.67 293.244 197.67Z" stroke="#C5C5C5" stroke-width="0.625304"/>
</g>
<path d="M59.0006 234.128L62.7602 234.403L62.913 234.342L63.1575 226.303L62.9435 220.007L59.2146 219.762L59.0312 219.793L58.6033 227.312L59.0006 234.128ZM55.1189 215.422L60.2232 215.758L68.2008 215.422V220.404L67.5283 220.373L67.131 227.312L67.8034 238.346H66.8864V238.712L59.5508 238.376L53.774 238.712V233.73L54.4159 233.761L54.5993 226.303L54.263 215.758H55.1189V215.422ZM83.0141 215.758L87.0181 215.422L80.3855 226.303L73.5695 238.346H69.596L76.8094 227.312L83.0141 215.758ZM75.8924 225.447L72.8053 225.233L69.3209 225.447V222.452L69.7488 222.482L69.81 220.587L69.6266 215.636H70.1156V215.422L73.2027 215.636L76.6871 215.422V218.448L76.2592 218.387L76.0452 221.168L76.4426 225.233H75.8924V225.447ZM72.2246 221.168L72.3774 222.757L73.4166 222.849L73.5389 222.819L73.6612 220.587L73.5389 218.142L72.5914 218.02L72.4386 218.05L72.2246 221.168ZM87.7823 232.019L87.3238 231.988L87.1404 234.77L87.5377 238.835H86.9876V239.049L83.9005 238.835L80.4161 239.049V236.053L80.8134 236.084L80.9051 234.189L80.6912 229.237H81.2108V229.023L84.2978 229.237L87.7823 229.023V232.019ZM84.6341 236.42L84.7258 234.189L84.6341 231.744L83.6865 231.621L83.5337 231.652L83.3198 234.77L83.4726 236.328L84.4812 236.451L84.6341 236.42Z" fill="#0052FF"/>
<path d="M99.6282 238.346L99.9644 226.303L99.781 219.823L94.5849 220.404V215.422L101.37 215.758L109.684 215.422V220.404L104.396 220.068L103.968 227.312L104.641 238.346H99.6282ZM109.764 238.712V233.73L110.406 233.761L110.589 226.303L110.253 215.758H111.109V215.422L116.213 215.758L122.876 215.422V220.404L115.204 219.762L115.021 219.793L114.715 224.989L116.213 225.08L120.553 224.744V229.726L115.204 229.054L114.685 229.176L114.99 234.128L118.75 234.403L122.876 233.73V238.712L115.541 238.376L109.764 238.712ZM128.233 238.346H123.25L123.74 235.014L123.464 235.045V230.063L124.504 230.124L125.084 226.303L125.635 220.221L124.779 220.404V215.422L128.569 215.758L134.56 215.422V220.404L134.223 220.373L134.682 227.312L135.232 230.124L136.546 230.063V235.045L136.118 235.014L136.73 238.346H131.717L131.381 234.647L128.477 234.464L128.233 238.346ZM128.936 227.312L128.752 230.399L130.953 230.307L130.556 226.303L129.914 221.993L128.936 227.312ZM142.422 238.346H137.439L137.776 226.303L137.439 215.758H143.063L146.395 227.312L148.657 232.844L150.888 227.312L154.189 215.758H159.813L159.477 226.303L159.813 238.346H154.831L155.503 227.312L155.412 225.753L151.408 238.346H145.845L141.871 225.753L141.749 227.312L142.422 238.346ZM172.011 238.346L172.348 226.303L172.164 219.823L166.968 220.404V215.422L173.754 215.758L182.067 215.422V220.404L176.78 220.068L176.352 227.312L177.024 238.346H172.011ZM196.574 220.404L195.901 220.373L195.504 227.312L196.177 238.346H195.26V238.712L187.924 238.376L182.147 238.712V233.73L182.789 233.761L182.972 226.303L182.636 215.758H183.492V215.422L188.596 215.758L196.574 215.422V220.404ZM191.286 234.342L191.531 226.303L191.317 220.007L187.588 219.762L187.404 219.793L186.976 227.312L187.374 234.128L191.133 234.403L191.286 234.342ZM197.555 238.346L197.891 226.303L197.555 215.758H202.537L202.017 224.775L202.69 224.805L206.113 215.758H211.095L206.449 227.312L211.095 238.346H206.113L202.965 228.962L202.506 228.871L201.987 228.962L202.537 238.346H197.555ZM211.28 238.712V233.73L211.921 233.761L212.105 226.303L211.769 215.758H212.624V215.422L217.729 215.758L224.392 215.422V220.404L216.72 219.762L216.537 219.793L216.231 224.989L217.729 225.08L222.069 224.744V229.726L216.72 229.054L216.201 229.176L216.506 234.128L220.266 234.403L224.392 233.73V238.712L217.056 238.376L211.28 238.712ZM225.561 226.303L225.225 215.758H230.849L234.058 227.006L234.119 226.303L233.783 215.758H238.765L238.093 227.312L238.765 238.346H233.63L229.657 225.753L229.534 227.312L230.207 238.346H225.225L225.561 226.303ZM245.23 219.762L244.986 219.793L244.833 224.928L252.871 227.189L252.413 234.739L253.269 238.712L246.147 238.376L241.012 238.712V237.673H239.423L239.942 230.552L244.191 230.704L244.313 234.25L245.138 234.403L248.776 234.158L248.837 229.421L240.645 227.984L241.012 220.587L240.798 215.422L246.239 215.758L253.36 215.422V217.439H253.972L253.483 224.469L249.203 224.011L249.081 220.068L245.23 219.762Z" fill="#2E282D"/>
<path d="M268.29 0.312653H38.7098C31.2849 0.312653 25.2658 6.33174 25.2658 13.7567V104.204C25.2658 111.629 31.2849 117.648 38.7098 117.648H268.29C275.715 117.648 281.734 111.629 281.734 104.204V13.7567C281.734 6.33174 275.715 0.312653 268.29 0.312653Z" fill="#0052FF" stroke="#C5C5C5" stroke-width="0.625304"/>
<path d="M69.9649 42.5078L70.3203 29.778L70.1265 22.9285L64.6339 23.5424V18.276L71.8066 18.6314L80.5946 18.276V23.5424L75.0051 23.187L74.5528 30.8442L75.2636 42.5078H69.9649ZM95.9288 23.5424L95.218 23.5101L94.798 30.8442L95.5088 42.5078H94.5395V42.8955L86.7853 42.5401L80.6789 42.8955V37.6291L81.3574 37.6615L81.5513 29.778L81.1959 18.6314H82.1005V18.276L87.4961 18.6314L95.9288 18.276V23.5424ZM90.3393 38.2753L90.5978 29.778L90.3716 23.1224L86.4299 22.8639L86.2361 22.8962L85.7838 30.8442L86.2038 38.0492L90.1778 38.3399L90.3393 38.2753ZM101.327 42.5078L101.683 29.778L101.489 22.9285L95.9964 23.5424V18.276L103.169 18.6314L111.957 18.276V23.5424L106.368 23.187L105.915 30.8442L106.626 42.5078H101.327ZM116.671 42.5078H111.405L111.922 38.9861L111.631 39.0184V33.7521L112.73 33.8167L113.344 29.778L113.925 23.3485L113.021 23.5424V18.276L117.027 18.6314L123.359 18.276V23.5424L123.004 23.5101L123.489 30.8442L124.07 33.8167L125.46 33.7521V39.0184L125.007 38.9861L125.653 42.5078H120.355L119.999 38.5984L116.93 38.4046L116.671 42.5078ZM117.415 30.8442L117.221 34.1075L119.547 34.0105L119.127 29.778L118.448 25.2225L117.415 30.8442ZM135.644 38.3399L140.006 37.6291V42.8955L132.251 42.5401L126.145 42.8955V37.6291L126.824 37.6615L127.017 29.778L126.662 18.6314H131.961L131.25 30.8442L131.67 38.0492L135.644 38.3399ZM153.198 22.8639L152.94 22.8962L152.778 28.3241L161.275 30.715L160.791 38.6953L161.695 42.8955L154.167 42.5401L148.739 42.8955V41.797H147.059L147.609 34.269L152.1 34.4305L152.229 38.1784L153.101 38.3399L156.946 38.0815L157.011 33.0736L148.352 31.555L148.739 23.7362L148.513 18.276L154.264 18.6314L161.792 18.276V20.4084H162.439L161.922 27.8395L157.398 27.3549L157.269 23.187L153.198 22.8639ZM169.199 42.5401L163.092 42.8955V37.6291L163.771 37.6615L163.965 29.778L163.609 18.6314H168.908L168.197 30.8442L168.617 38.0492L172.591 38.3399L172.753 38.2753L173.011 29.778L172.656 18.6314H177.922L177.211 30.8442L177.922 42.5078H176.953V42.8955L169.199 42.5401ZM179.127 18.6314H179.999V18.276L185.427 18.6314L192.438 18.276V18.6314H193.181L192.535 26.8379L193.052 33.5582H189.982V34.1075L184.361 33.3967L183.876 33.4613L184.393 42.5078H179.127L179.482 29.778L179.127 18.6314ZM184.167 22.8962L183.811 29.0672L185.427 29.1965L188.076 28.9703L188.302 25.7717L188.173 23.187L184.361 22.8639L184.167 22.8962ZM193.988 18.6314H194.86V18.276L200.288 18.6314L207.299 18.276V18.6314H208.042L207.396 26.8379L207.913 33.5582H204.843V34.1075L199.222 33.3967L198.737 33.4613L199.254 42.5078H193.988L194.343 29.778L193.988 18.6314ZM199.028 22.8962L198.672 29.0672L200.288 29.1965L202.937 28.9703L203.163 25.7717L203.034 23.187L199.222 22.8639L199.028 22.8962ZM218.089 38.3399L222.451 37.6291V42.8955L214.696 42.5401L208.59 42.8955V37.6291L209.268 37.6615L209.462 29.778L209.107 18.6314H214.406L213.695 30.8442L214.115 38.0492L218.089 38.3399ZM222.118 26.4502L220.535 18.6314H225.802L226.545 25.384L227.966 33.0413L230.196 18.6314H235.462L233.685 25.384L232.522 37.5968H230.228L230.616 42.5078H225.349L225.543 37.5968H223.475L222.118 26.4502Z" fill="white"/>
<g filter="url(#filter2_d_2_62)">
<path d="M293.243 54.4453H13.7567C6.15908 54.4453 0 60.6044 0 68.202V104.206C0 111.803 6.15908 117.963 13.7567 117.963H293.243C300.841 117.963 307 111.803 307 104.206V68.202C307 60.6044 300.841 54.4453 293.243 54.4453Z" fill="white"/>
<path d="M293.244 54.758H13.7567C6.33174 54.758 0.312653 60.7771 0.312653 68.202V104.206C0.312653 111.631 6.33174 117.65 13.7567 117.65H293.244C300.669 117.65 306.688 111.631 306.688 104.206V68.202C306.688 60.7771 300.669 54.758 293.244 54.758Z" stroke="#C5C5C5" stroke-width="0.625304"/>
</g>
<path d="M60.5241 80.4331L59.8102 73.6686H61.3059V73.2946L66.9827 73.6686L74.393 73.2946V73.6686H75.1749L74.461 80.4331L72.1495 85.9739L74.461 93.3842L75.0049 98.6191H71.8096V99.197L65.8609 98.4491L65.521 98.5171V98.6191H64.9431L61.3059 99.197V98.6191H59.9462L60.5241 93.3842L62.8016 85.9739L60.5241 80.4331ZM64.9431 92.2625L65.1131 93.8941L66.9827 94.0301L69.872 93.7922L70.008 92.2625L68.0704 88.5573L67.1866 88.0474L64.9431 92.2625ZM64.9431 79.3453L66.5408 83.1525L66.9827 82.9145L68.3084 83.4244L70.008 79.3453L69.94 78.4955L65.8609 78.1216L65.0111 78.2575L64.9431 79.3453ZM76.986 93.2823H83.1047L78.1758 102.868H75.8303L76.986 93.2823ZM84.7571 80.4331L84.0432 73.6686H85.5389V73.2946L91.2157 73.6686L98.626 73.2946V73.6686H99.4079L98.694 80.4331L96.3825 85.9739L98.694 93.3842L99.2379 98.6191H96.0426V99.197L90.0939 98.4491L89.754 98.5171V98.6191H89.1761L85.5389 99.197V98.6191H84.1792L84.7571 93.3842L87.0346 85.9739L84.7571 80.4331ZM89.1761 92.2625L89.3461 93.8941L91.2157 94.0301L94.105 93.7922L94.241 92.2625L92.3034 88.5573L91.4196 88.0474L89.1761 92.2625ZM89.1761 79.3453L90.7737 83.1525L91.2157 82.9145L92.5414 83.4244L94.241 79.3453L94.173 78.4955L90.0939 78.1216L89.2441 78.2575L89.1761 79.3453ZM101.355 80.4331L100.641 73.6686H102.137V73.2946L107.814 73.6686L115.224 73.2946V73.6686H116.006L115.292 80.4331L112.98 85.9739L115.292 93.3842L115.836 98.6191H112.641V99.197L106.692 98.4491L106.352 98.5171V98.6191H105.774L102.137 99.197V98.6191H100.777L101.355 93.3842L103.633 85.9739L101.355 80.4331ZM105.774 92.2625L105.944 93.8941L107.814 94.0301L110.703 93.7922L110.839 92.2625L108.901 88.5573L108.018 88.0474L105.774 92.2625ZM105.774 79.3453L107.372 83.1525L107.814 82.9145L109.139 83.4244L110.839 79.3453L110.771 78.4955L106.692 78.1216L105.842 78.2575L105.774 79.3453ZM117.953 80.4331L117.239 73.6686H118.735V73.2946L124.412 73.6686L131.822 73.2946V73.6686H132.604L131.89 80.4331L129.578 85.9739L131.89 93.3842L132.434 98.6191H129.238V99.197L123.29 98.4491L122.95 98.5171V98.6191H122.372L118.735 99.197V98.6191H117.375L117.953 93.3842L120.23 85.9739L117.953 80.4331ZM122.372 92.2625L122.542 93.8941L124.412 94.0301L127.301 93.7922L127.437 92.2625L125.499 88.5573L124.615 88.0474L122.372 92.2625ZM122.372 79.3453L123.97 83.1525L124.412 82.9145L125.737 83.4244L127.437 79.3453L127.369 78.4955L123.29 78.1216L122.44 78.2575L122.372 79.3453ZM134.415 93.2823H140.534L135.605 102.868H133.259L134.415 93.2823ZM142.186 80.4331L141.472 73.6686H142.968V73.2946L148.645 73.6686L156.055 73.2946V73.6686H156.837L156.123 80.4331L153.811 85.9739L156.123 93.3842L156.667 98.6191H153.471V99.197L147.523 98.4491L147.183 98.5171V98.6191H146.605L142.968 99.197V98.6191H141.608L142.186 93.3842L144.463 85.9739L142.186 80.4331ZM146.605 92.2625L146.775 93.8941L148.645 94.0301L151.534 93.7922L151.67 92.2625L149.732 88.5573L148.848 88.0474L146.605 92.2625ZM146.605 79.3453L148.203 83.1525L148.645 82.9145L149.97 83.4244L151.67 79.3453L151.602 78.4955L147.523 78.1216L146.673 78.2575L146.605 79.3453ZM158.784 80.4331L158.07 73.6686H159.566V73.2946L165.242 73.6686L172.653 73.2946V73.6686H173.435L172.721 80.4331L170.409 85.9739L172.721 93.3842L173.265 98.6191H170.069V99.197L164.121 98.4491L163.781 98.5171V98.6191H163.203L159.566 99.197V98.6191H158.206L158.784 93.3842L161.061 85.9739L158.784 80.4331ZM163.203 92.2625L163.373 93.8941L165.242 94.0301L168.132 93.7922L168.268 92.2625L166.33 88.5573L165.446 88.0474L163.203 92.2625ZM163.203 79.3453L164.801 83.1525L165.242 82.9145L166.568 83.4244L168.268 79.3453L168.2 78.4955L164.121 78.1216L163.271 78.2575L163.203 79.3453ZM175.382 80.4331L174.668 73.6686H176.164V73.2946L181.84 73.6686L189.251 73.2946V73.6686H190.033L189.319 80.4331L187.007 85.9739L189.319 93.3842L189.863 98.6191H186.667V99.197L180.719 98.4491L180.379 98.5171V98.6191H179.801L176.164 99.197V98.6191H174.804L175.382 93.3842L177.659 85.9739L175.382 80.4331ZM179.801 92.2625L179.971 93.8941L181.84 94.0301L184.73 93.7922L184.866 92.2625L182.928 88.5573L182.044 88.0474L179.801 92.2625ZM179.801 79.3453L181.398 83.1525L181.84 82.9145L183.166 83.4244L184.866 79.3453L184.798 78.4955L180.719 78.1216L179.869 78.2575L179.801 79.3453ZM191.844 93.2823H197.962L193.034 102.868H190.688L191.844 93.2823ZM199.615 80.4331L198.901 73.6686H200.397V73.2946L206.073 73.6686L213.484 73.2946V73.6686H214.266L213.552 80.4331L211.24 85.9739L213.552 93.3842L214.096 98.6191H210.9V99.197L204.952 98.4491L204.612 98.5171V98.6191H204.034L200.397 99.197V98.6191H199.037L199.615 93.3842L201.892 85.9739L199.615 80.4331ZM204.034 92.2625L204.204 93.8941L206.073 94.0301L208.963 93.7922L209.099 92.2625L207.161 88.5573L206.277 88.0474L204.034 92.2625ZM204.034 79.3453L205.631 83.1525L206.073 82.9145L207.399 83.4244L209.099 79.3453L209.031 78.4955L204.952 78.1216L204.102 78.2575L204.034 79.3453ZM216.213 80.4331L215.499 73.6686H216.995V73.2946L222.671 73.6686L230.082 73.2946V73.6686H230.864L230.15 80.4331L227.838 85.9739L230.15 93.3842L230.694 98.6191H227.498V99.197L221.55 98.4491L221.21 98.5171V98.6191H220.632L216.995 99.197V98.6191H215.635L216.213 93.3842L218.49 85.9739L216.213 80.4331ZM220.632 92.2625L220.802 93.8941L222.671 94.0301L225.561 93.7922L225.697 92.2625L223.759 88.5573L222.875 88.0474L220.632 92.2625ZM220.632 79.3453L222.229 83.1525L222.671 82.9145L223.997 83.4244L225.697 79.3453L225.629 78.4955L221.55 78.1216L220.7 78.2575L220.632 79.3453ZM232.811 80.4331L232.097 73.6686H233.592V73.2946L239.269 73.6686L246.68 73.2946V73.6686H247.461L246.748 80.4331L244.436 85.9739L246.748 93.3842L247.291 98.6191H244.096V99.197L238.147 98.4491L237.808 98.5171V98.6191H237.23L233.592 99.197V98.6191H232.233L232.811 93.3842L235.088 85.9739L232.811 80.4331ZM237.23 92.2625L237.4 93.8941L239.269 94.0301L242.159 93.7922L242.295 92.2625L240.357 88.5573L239.473 88.0474L237.23 92.2625ZM237.23 79.3453L238.827 83.1525L239.269 82.9145L240.595 83.4244L242.295 79.3453L242.227 78.4955L238.147 78.1216L237.298 78.2575L237.23 79.3453Z" fill="#2E282D"/>
</g>
<defs>
<filter id="filter0_d_2_62" x="0" y="125.521" width="310.141" height="67.4142" filterUnits="userSpaceOnUse" color-interpolation-filters="sRGB">
<feFlood flood-opacity="0" result="BackgroundImageFix"/>
<feColorMatrix in="SourceAlpha" type="matrix" values="0 0 0 0 0 0 0 0 0 0 0 0 0 0 0 0 0 0 127 0" result="hardAlpha"/>
<feOffset dx="3.14041" dy="3.14041"/>
<feComposite in2="hardAlpha" operator="out"/>
<feColorMatrix type="matrix" values="0 0 0 0 0.870833 0 0 0 0 0.843125 0 0 0 0 0.820035 0 0 0 1 0"/>
<feBlend mode="normal" in2="BackgroundImageFix" result="effect1_dropShadow_2_62"/>
<feBlend mode="normal" in="SourceGraphic" in2="effect1_dropShadow_2_62" result="shape"/>
</filter>
<filter id="filter1_d_2_62" x="0" y="197.357" width="310.141" height="66.6579" filterUnits="userSpaceOnUse" color-interpolation-filters="sRGB">
<feFlood flood-opacity="0" result="BackgroundImageFix"/>
<feColorMatrix in="SourceAlpha" type="matrix" values="0 0 0 0 0 0 0 0 0 0 0 0 0 0 0 0 0 0 127 0" result="hardAlpha"/>
<feOffset dx="3.14041" dy="3.14041"/>
<feComposite in2="hardAlpha" operator="out"/>
<feColorMatrix type="matrix" values="0 0 0 0 0.870833 0 0 0 0 0.843125 0 0 0 0 0.820035 0 0 0 1 0"/>
<feBlend mode="normal" in2="BackgroundImageFix" result="effect1_dropShadow_2_62"/>
<feBlend mode="normal" in="SourceGraphic" in2="effect1_dropShadow_2_62" result="shape"/>
</filter>
<filter id="filter2_d_2_62" x="0" y="54.4453" width="310.141" height="66.6576" filterUnits="userSpaceOnUse" color-interpolation-filters="sRGB">
<feFlood flood-opacity="0" result="BackgroundImageFix"/>
<feColorMatrix in="SourceAlpha" type="matrix" values="0 0 0 0 0 0 0 0 0 0 0 0 0 0 0 0 0 0 127 0" result="hardAlpha"/>
<feOffset dx="3.14041" dy="3.14041"/>
<feComposite in2="hardAlpha" operator="out"/>
<feColorMatrix type="matrix" values="0 0 0 0 0.870833 0 0 0 0 0.843125 0 0 0 0 0.820035 0 0 0 1 0"/>
<feBlend mode="normal" in2="BackgroundImageFix" result="effect1_dropShadow_2_62"/>
<feBlend mode="normal" in="SourceGraphic" in2="effect1_dropShadow_2_62" result="shape"/>
</filter>
<clipPath id="clip0_2_62">
<rect width="311" height="265" fill="white"/>
</clipPath>
</defs>
</svg>
